<svg xmlns="http://www.w3.org/2000/svg" xmlns:xlink="http://www.w3.org/1999/xlink" id="a" data-name="Layer 1" viewBox="0 0 892.9 503.9">
  <defs fill="#000000">
    <style>
      .o {
        fill: url(#c);
      }

      .o, .p, .q, .r, .s, .t, .u, .v, .w, .x, .y, .z, .aa {
        stroke-width: 0px;
      }

      .p {
        fill: url(#e);
      }

      .q {
        fill: url(#g);
      }

      .r {
        fill: url(#i);
      }

      .s {
        fill: url(#l);
      }

      .t {
        fill: url(#b);
      }

      .u {
        fill: url(#n);
      }

      .v {
        fill: url(#h);
      }

      .w {
        fill: url(#j);
      }

      .x {
        fill: url(#d);
      }

      .y {
        fill: url(#f);
      }

      .z {
        fill: url(#m);
      }

      .aa {
        fill: url(#k);
      }
    </style>
    <linearGradient id="b" x1="205.85" y1="354.81" x2="205.85" y2="215.2" gradientUnits="userSpaceOnUse" fill="#000000">
      <stop offset="0" stop-color="#808dde" fill="#000000"/>
      <stop offset="1" stop-color="#5f6eed" fill="#000000"/>
    </linearGradient>
    <linearGradient id="c" x1="342.15" y1="354.92" x2="342.15" y2="249.2" xlink:href="#b" fill="#000000"/>
    <linearGradient id="d" x1="479.05" y1="355.2" x2="479.05" y2="215.4" xlink:href="#b" fill="#000000"/>
    <linearGradient id="e" x1="620.85" y1="355.2" x2="620.85" y2="215.4" xlink:href="#b" fill="#000000"/>
    <linearGradient id="f" x1="759.9" y1="386.83" x2="759.9" y2="249.3" xlink:href="#b" fill="#000000"/>
    <linearGradient id="g" x1="124.95" y1="205.4" x2="124.95" y2="97.4" xlink:href="#b" fill="#000000"/>
    <linearGradient id="h" x1="229.55" y1="204.8" x2="229.55" y2="75.8" xlink:href="#b" fill="#000000"/>
    <linearGradient id="i" x1="342.9" y1="205.8" x2="342.9" y2="99.9" xlink:href="#b" fill="#000000"/>
    <linearGradient id="j" x1="479.65" y1="205.6" x2="479.65" y2="65.9" xlink:href="#b" fill="#000000"/>
    <linearGradient id="k" x1="618.7" y1="237.6" x2="618.7" y2="100" xlink:href="#b" fill="#000000"/>
    <linearGradient id="l" x1="553.95" y1="457.35" x2="553.95" y2="368.67" xlink:href="#b" fill="#000000"/>
    <linearGradient id="m" x1="480" y1="333.7" x2="480" y2="294.3" xlink:href="#b" fill="#000000"/>
    <linearGradient id="n" x1="621.2" y1="333.7" x2="621.2" y2="294.3" xlink:href="#b" fill="#000000"/>
  </defs>
  <g>
    <path class="t" d="M202,352.3c-5.6-1.8-10.4-4.2-14.5-7.4-4.1-3.2-7.3-6.8-9.7-10.9h-.7v18.5h-40.2v-137.3h40.2v52.9h.7c2.4-4.2,5.6-8,9.7-11.2,4.1-3.2,8.9-5.7,14.5-7.5s11.9-2.7,18.9-2.7c10.7,0,20.1,2.2,28.2,6.6s14.4,10.6,18.9,18.7,6.8,17.6,6.8,28.7v.2c0,11-2.2,20.5-6.8,28.6-4.5,8.1-10.8,14.4-18.9,18.7-8.1,4.4-17.5,6.6-28.3,6.6-6.9.1-13.2-.7-18.8-2.5h0ZM220.6,323.9c4.2-2.1,7.5-5,9.9-8.9,2.3-3.9,3.5-8.5,3.5-13.9v-.2c0-5.4-1.1-10-3.4-13.9s-5.5-6.9-9.8-8.9-9.2-3.1-14.9-3.1-10.8,1-15.1,3.1-7.6,5.1-10,8.9c-2.4,3.9-3.6,8.5-3.6,13.9v.2c0,5.4,1.2,10,3.6,13.9,2.4,3.9,5.7,6.9,9.9,8.9s9.3,3.1,15.1,3.1,10.5-1.1,14.8-3.1h0Z" fill="#000000"/>
    <path class="o" d="M299.1,349.8c-6.8-3.5-12-8.6-15.7-15.4-3.6-6.8-5.5-14.9-5.5-24.5v-60.6h40.2v52c0,7.9,1.9,14,5.8,18.2s9.5,6.3,16.9,6.3c3.9,0,7.3-.5,10.4-1.7,3-1.1,5.7-2.8,7.9-5,2.2-2.2,4-5,5.2-8.1s1.9-6.7,1.9-10.8v-51h40.2v103.1h-40.2v-20.2h-.8c-2.4,4.7-5.6,8.7-9.5,12.1s-8.6,6-14,7.9c-5.4,1.8-11.6,2.8-18.4,2.8-9.4.2-17.6-1.6-24.4-5.1h0Z" fill="#000000"/>
    <path class="x" d="M435.8,348.4c-8.1-4.4-14.4-10.6-18.9-18.7s-6.8-17.7-6.8-28.6v-.2c0-11.1,2.3-20.7,6.8-28.7s10.8-14.3,18.9-18.7c8-4.4,17.4-6.6,28.2-6.6,7,0,13.2.9,18.8,2.7,5.6,1.8,10.4,4.3,14.5,7.5,4.1,3.2,7.3,6.9,9.8,11.2h.7v-52.9h40.2v137.3h-40.2v-18.5h-.8c-2.4,4.1-5.7,7.8-9.7,10.9-4.1,3.2-8.9,5.6-14.5,7.4s-11.9,2.7-18.9,2.7c-10.7-.3-20.1-2.4-28.1-6.8h0ZM494.2,323.8c4.3-2.1,7.6-5.1,9.9-8.9s3.5-8.5,3.5-13.9v-.2c0-5.4-1.2-10-3.6-13.9s-5.7-6.9-9.9-8.9-9.2-3.1-14.9-3.1-10.8,1-15,3.1-7.4,5-9.8,8.9c-2.3,3.9-3.5,8.5-3.5,13.9v.2c0,5.4,1.2,10,3.5,13.9s5.6,6.9,9.8,8.9c4.2,2.1,9.2,3.1,15,3.1s10.8-1,15-3.1h0Z" fill="#000000"/>
    <path class="p" d="M577.6,348.4c-8.1-4.4-14.3-10.6-18.9-18.7-4.5-8.1-6.8-17.7-6.8-28.6v-.2c0-11.1,2.3-20.7,6.8-28.7s10.8-14.3,18.9-18.7c8-4.4,17.4-6.6,28.2-6.6,7,0,13.2.9,18.8,2.7s10.4,4.3,14.5,7.5c4.1,3.2,7.3,6.9,9.8,11.2h.7v-52.9h40.2v137.3h-40.2v-18.5h-.7c-2.4,4.1-5.7,7.8-9.7,10.9-4.1,3.2-8.9,5.6-14.5,7.4s-11.9,2.7-18.9,2.7c-10.8-.3-20.1-2.4-28.2-6.8h0ZM636.1,323.8c4.3-2.1,7.6-5.1,9.9-8.9s3.5-8.5,3.5-13.9v-.2c0-5.4-1.2-10-3.6-13.9-2.4-3.9-5.7-6.9-9.9-8.9s-9.2-3.1-14.9-3.1-10.8,1-15,3.1-7.4,5-9.8,8.9c-2.3,3.9-3.5,8.5-3.5,13.9v.2c0,5.4,1.2,10,3.5,13.9s5.6,6.9,9.8,8.9c4.2,2.1,9.2,3.1,15,3.1s10.7-1,15-3.1h0Z" fill="#000000"/>
    <path class="y" d="M711.6,386.2c-3.7-.5-6.8-1.1-9.5-1.8v-26.8c2.2.6,4.7,1.1,7.4,1.4s5.4.5,8.2.5c4.2,0,7.8-.6,11-1.7,3.1-1.1,5.7-2.8,7.6-5l1.2-2.3-48.8-101.2h42.5l31.7,76.8-5.1-5.6h7l-5.2,5.6,29.9-76.8h41.6l-43.8,95.2c-4.8,10.3-10.2,18.6-16,24.8-5.9,6.2-12.6,10.7-20.3,13.4s-16.7,4.1-27.1,4.1c-4.6.1-8.6-.1-12.3-.6h0Z" fill="#000000"/>
  </g>
  <g>
    <path class="q" d="M93.1,201.7c-9.4-2.7-16.8-6.6-22-11.6-5.3-5-8.3-10.9-9-17.8l-.1-.9,39,.1.2.5c1,3.7,3.7,6.4,8.1,8,4.4,1.7,10.4,2.5,18.1,2.5,4.4,0,8.1-.4,11.1-1.1,3-.7,5.4-1.7,6.9-3,1.6-1.3,2.4-2.9,2.4-4.9v-.1c0-2.5-1.1-4.3-3.4-5.5s-6.3-2.1-12.1-2.7l-27.8-2.7c-8.9-.9-16.2-2.6-22.1-5.2-5.9-2.6-10.2-6-13.1-10.3s-4.3-9.3-4.3-15.2v-.1c0-7.3,2.3-13.5,6.9-18.6s11.3-9,20-11.7c8.7-2.7,19.2-4,31.4-4,12.8,0,23.6,1.4,32.5,4.1s15.7,6.6,20.4,11.6c4.8,5,7.4,10.9,7.9,17.6v.9h-36.7l-.1-.5c-.6-3.4-3-6-7-7.9-4.1-1.8-9.6-2.7-16.5-2.7-4.3,0-8,.3-10.9,1s-5.2,1.7-6.8,3c-1.6,1.4-2.3,3-2.3,4.9v.1c0,1.5.5,2.8,1.4,3.9.9,1.1,2.6,2,4.9,2.7s5.3,1.2,9,1.6l28.4,2.5c14.4,1.4,24.7,4.5,31,9.4s9.4,11.6,9.4,20.1v.1c0,7.5-2.4,13.9-7.3,19.2s-11.8,9.4-20.9,12.2c-9.1,2.8-20,4.2-32.7,4.2s-24.4-1-33.9-3.7h0Z" fill="#000000"/>
    <path class="v" d="M215.6,196.1c-7.6-5.7-11.4-15.2-11.4-28.4v-41h-19.6v-26.7h19.6v-24.2h40.2v24.3h30.1v26.7h-30v35.5c0,5.7,1.5,9.7,4.4,12,3,2.3,7.9,3.5,15,3.5,2,0,4-.1,5.8-.2s3.4-.3,4.8-.5v26.1c-3,.4-6.4.8-10.2,1.1-3.8.3-7.8.5-12,.5-16.9-.1-29.1-2.9-36.7-8.7h0Z" fill="#000000"/>
    <path class="r" d="M299.8,200.5c-6.8-3.5-12-8.6-15.6-15.4-3.7-6.8-5.5-14.9-5.5-24.5v-60.6h40.2v52c0,7.9,1.9,14,5.8,18.2s9.5,6.3,16.9,6.3c3.9,0,7.3-.6,10.4-1.7,3-1.1,5.7-2.8,7.9-5,2.2-2.2,4-4.9,5.2-8.1s1.9-6.7,1.9-10.8v-51h40.1v103.1h-40.1v-20h-.8c-2.4,4.7-5.6,8.7-9.5,12.1s-8.6,6-14,7.9c-5.4,1.8-11.6,2.8-18.4,2.8-9.6,0-17.8-1.8-24.5-5.3h0Z" fill="#000000"/>
    <path class="w" d="M436.4,199.1c-8.1-4.4-14.4-10.6-18.9-18.7-4.5-8.1-6.8-17.7-6.8-28.6v-.2c0-11.1,2.3-20.7,6.8-28.7,4.5-8.1,10.8-14.3,18.9-18.7,8-4.4,17.4-6.6,28.2-6.6,7,0,13.2.9,18.8,2.7,5.6,1.8,10.4,4.3,14.5,7.5s7.3,6.9,9.8,11.2h.7v-53.1h40.2v137.3h-40.2v-18.6h-.7c-2.4,4.1-5.7,7.8-9.7,10.9-4.1,3.2-8.9,5.6-14.5,7.4s-11.9,2.7-18.9,2.7c-10.7.1-20.1-2.1-28.2-6.5h0ZM494.9,174.5c4.3-2.1,7.6-5.1,9.9-8.9s3.5-8.5,3.5-13.9v-.2c0-5.4-1.2-10-3.6-13.9s-5.7-6.9-9.9-8.9-9.2-3.1-14.9-3.1-10.8,1-15,3.1c-4.2,2.1-7.4,5-9.8,8.9-2.3,3.9-3.5,8.6-3.5,13.9v.2c0,5.4,1.2,10,3.5,13.9s5.6,6.9,9.8,8.9c4.2,2.1,9.2,3.1,15,3.1s10.7-1,15-3.1h0Z" fill="#000000"/>
    <path class="aa" d="M570.4,236.9c-3.7-.5-6.8-1.1-9.5-1.8v-26.8c2.2.6,4.7,1.1,7.4,1.4s5.4.5,8.2.5c4.2,0,7.8-.6,11-1.7,3.1-1.1,5.7-2.8,7.6-5l1.2-2.3-48.8-101.2h42.5l31.7,76.8-5.1-5.6h7l-5.2,5.6,29.9-76.8h41.6l-43.9,95.3c-4.8,10.3-10.2,18.6-16,24.8-5.9,6.2-12.6,10.7-20.3,13.4-7.7,2.8-16.7,4.1-27.1,4.1-4.5,0-8.5-.2-12.2-.7h0Z" fill="#000000"/>
  </g>
  <path class="s" d="M429.9,370.6c5.6-9.5,47.8,22.8,123.1,22.8s118.8-32.9,124.9-22.8c7.6,12.6-47.2,84.6-119.1,86.7-75.8,2.3-136.2-74.2-128.9-86.7h0Z" fill="#000000"/>
  <circle class="z" cx="480" cy="314" r="19.7" fill="#000000"/>
  <circle class="u" cx="621.2" cy="314" r="19.7" fill="#000000"/>
</svg>